# xmcd CD database file
#
# Track frame offsets:
#	150
#	14353
#	28700
#	44621
#	58158
#	72088
#	85716
#	98454
#	112172
#	135636
#	151131
#	165737
#	177925
#	191196
#	204046
#
# Disc length: 2912 seconds
#
# Revision: 1
# Processed by: cddbd v1.5.2PL0 Copyright (c) Steve Scherf et al.
# Submitted via: CDex 1.51
#
DISCID=c40b5e0f
DTITLE=HER and Kings County - Raise A Little Hell
DYEAR=2015
DGENRE=Country
TTITLE0=Deep In The Country
TTITLE1=Where Did All The Money Go
TTITLE2=White Trash (Country Boy)
TTITLE3=Family Tree
TTITLE4=My Backyard
TTITLE5=Put Me In The Ground
TTITLE6=Freight Train
TTITLE7=Six Figures
TTITLE8=Heavens Crashing Down
TTITLE9=My Heart Cant Take Anymore
TTITLE10=Oh My Darlin'
TTITLE11=Young Guns
TTITLE12=Down In Dixie
TTITLE13=Raise A Little Hell
TTITLE14=Be My Lover
EXTD=YEAR: 2015
EXTT0=
EXTT1=
EXTT2=
EXTT3=
EXTT4=
EXTT5=
EXTT6=
EXTT7=
EXTT8=
EXTT9=
EXTT10=
EXTT11=
EXTT12=
EXTT13=
EXTT14=
PLAYORDER=
